<svg width="512" height="512" viewBox="0 0 512 512" fill="none" xmlns="http://www.w3.org/2000/svg">
<rect width="512" height="512" rx="40" fill="white"/>
<mask id="path-2-outside-1_208_1516" maskUnits="userSpaceOnUse" x="52.5" y="88" width="411" height="338" fill="black">
<rect fill="white" x="52.5" y="88" width="411" height="338"/>
<path d="M87.2654 175.416V239H56.7623V92.3559H86.4062V148.421H87.6951C90.1773 141.929 94.1871 136.846 99.7245 133.17C105.262 129.447 112.207 127.585 120.561 127.585C128.199 127.585 134.858 129.256 140.539 132.597C146.267 135.891 150.706 140.641 153.857 146.846C157.055 153.004 158.63 160.379 158.583 168.972V239H128.079V174.414C128.127 167.635 126.409 162.36 122.924 158.589C119.487 154.818 114.666 152.932 108.46 152.932C104.307 152.932 100.631 153.816 97.4332 155.582C94.2826 157.348 91.8003 159.926 89.9864 163.315C88.2202 166.657 87.3132 170.69 87.2654 175.416ZM230.694 241.148C219.38 241.148 209.642 238.857 201.48 234.274C193.365 229.644 187.111 223.104 182.719 214.655C178.328 206.158 176.132 196.109 176.132 184.51C176.132 173.196 178.328 163.267 182.719 154.723C187.111 146.178 193.293 139.519 201.265 134.745C209.284 129.972 218.688 127.585 229.477 127.585C236.732 127.585 243.487 128.754 249.74 131.093C256.042 133.385 261.531 136.846 266.209 141.476C270.935 146.106 274.611 151.93 277.236 158.947C279.862 165.917 281.174 174.079 281.174 183.436V191.813H188.305V172.91H252.461C252.461 168.518 251.507 164.628 249.597 161.239C247.688 157.849 245.038 155.2 241.649 153.291C238.308 151.333 234.417 150.355 229.978 150.355C225.347 150.355 221.242 151.429 217.662 153.577C214.13 155.677 211.361 158.518 209.356 162.098C207.351 165.63 206.325 169.568 206.277 173.912V191.885C206.277 197.327 207.279 202.029 209.284 205.991C211.337 209.953 214.225 213.008 217.948 215.156C221.672 217.304 226.087 218.378 231.195 218.378C234.584 218.378 237.687 217.901 240.504 216.946C243.32 215.991 245.731 214.559 247.736 212.65C249.74 210.74 251.268 208.401 252.318 205.633L280.53 207.494C279.098 214.273 276.162 220.192 271.723 225.252C267.331 230.264 261.65 234.179 254.681 236.995C247.759 239.764 239.764 241.148 230.694 241.148ZM329.567 92.3559V239H299.064V92.3559H329.567ZM351.985 280.244V129.017H382.059V147.491H383.419C384.756 144.531 386.689 141.524 389.219 138.469C391.797 135.366 395.138 132.788 399.244 130.735C403.397 128.635 408.552 127.585 414.71 127.585C422.73 127.585 430.129 129.685 436.907 133.886C443.686 138.039 449.104 144.316 453.161 152.718C457.219 161.071 459.247 171.549 459.247 184.152C459.247 196.42 457.266 206.778 453.304 215.228C449.39 223.629 444.044 230.002 437.265 234.346C430.534 238.642 422.992 240.79 414.638 240.79C408.719 240.79 403.683 239.812 399.53 237.854C395.425 235.897 392.059 233.439 389.434 230.479C386.808 227.472 384.804 224.441 383.419 221.386H382.488V280.244H351.985ZM381.844 184.008C381.844 190.548 382.751 196.253 384.565 201.122C386.379 205.991 389.004 209.786 392.441 212.507C395.878 215.18 400.055 216.516 404.972 216.516C409.936 216.516 414.137 215.156 417.574 212.435C421.011 209.666 423.613 205.848 425.379 200.978C427.193 196.062 428.1 190.405 428.1 184.008C428.1 177.66 427.217 172.075 425.451 167.253C423.684 162.432 421.083 158.661 417.646 155.94C414.209 153.219 409.984 151.858 404.972 151.858C400.007 151.858 395.807 153.171 392.37 155.797C388.98 158.422 386.379 162.145 384.565 166.967C382.751 171.788 381.844 177.469 381.844 184.008Z"/>
<path d="M96.8424 421.862C92.1166 421.862 88.0591 420.191 84.6698 416.849C81.3283 413.46 79.6576 409.403 79.6576 404.677C79.6576 399.999 81.3283 395.989 84.6698 392.647C88.0591 389.306 92.1166 387.635 96.8424 387.635C101.425 387.635 105.435 389.306 108.872 392.647C112.309 395.989 114.027 399.999 114.027 404.677C114.027 407.827 113.216 410.715 111.593 413.341C110.017 415.919 107.941 417.995 105.363 419.57C102.786 421.098 99.9453 421.862 96.8424 421.862ZM167.557 356.416V420H137.054V310.017H166.125V329.421H167.414C169.849 323.025 173.93 317.965 179.658 314.242C185.387 310.47 192.332 308.585 200.495 308.585C208.133 308.585 214.792 310.256 220.472 313.597C226.153 316.939 230.569 321.712 233.719 327.918C236.87 334.076 238.445 341.427 238.445 349.972V420H207.942V355.414C207.99 348.683 206.271 343.432 202.786 339.661C199.302 335.842 194.504 333.932 188.394 333.932C184.289 333.932 180.661 334.816 177.51 336.582C174.407 338.348 171.973 340.926 170.207 344.315C168.488 347.657 167.605 351.69 167.557 356.416ZM310.592 422.148C299.279 422.148 289.541 419.857 281.378 415.274C273.263 410.644 267.009 404.104 262.618 395.655C258.226 387.158 256.03 377.109 256.03 365.51C256.03 354.196 258.226 344.267 262.618 335.723C267.009 327.178 273.191 320.519 281.163 315.745C289.183 310.972 298.586 308.585 309.375 308.585C316.631 308.585 323.385 309.754 329.639 312.093C335.94 314.385 341.429 317.846 346.107 322.476C350.833 327.106 354.509 332.93 357.134 339.947C359.76 346.917 361.073 355.079 361.073 364.436V372.813H268.203V353.91H332.359C332.359 349.518 331.405 345.628 329.495 342.239C327.586 338.849 324.937 336.2 321.547 334.291C318.206 332.333 314.315 331.355 309.876 331.355C305.246 331.355 301.14 332.429 297.56 334.577C294.028 336.677 291.259 339.518 289.254 343.098C287.249 346.63 286.223 350.568 286.175 354.912V372.885C286.175 378.327 287.178 383.029 289.183 386.991C291.235 390.953 294.123 394.008 297.847 396.156C301.57 398.304 305.986 399.378 311.093 399.378C314.482 399.378 317.585 398.901 320.402 397.946C323.218 396.991 325.629 395.559 327.634 393.65C329.639 391.74 331.166 389.401 332.216 386.633L360.428 388.494C358.996 395.273 356.06 401.192 351.621 406.252C347.229 411.264 341.549 415.179 334.579 417.995C327.658 420.764 319.662 422.148 310.592 422.148ZM437.462 310.017V332.93H371.229V310.017H437.462ZM386.266 283.667H416.769V386.203C416.769 389.02 417.198 391.215 418.058 392.791C418.917 394.318 420.11 395.392 421.638 396.013C423.213 396.633 425.027 396.944 427.08 396.944C428.512 396.944 429.944 396.824 431.376 396.586C432.808 396.299 433.906 396.084 434.67 395.941L439.467 418.64C437.939 419.117 435.791 419.666 433.023 420.286C430.254 420.955 426.889 421.36 422.927 421.504C415.575 421.79 409.131 420.812 403.594 418.568C398.104 416.324 393.832 412.84 390.777 408.114C387.721 403.388 386.218 397.421 386.266 390.213V283.667Z"/>
</mask>
<path d="M87.2654 175.416V239H56.7623V92.3559H86.4062V148.421H87.6951C90.1773 141.929 94.1871 136.846 99.7245 133.17C105.262 129.447 112.207 127.585 120.561 127.585C128.199 127.585 134.858 129.256 140.539 132.597C146.267 135.891 150.706 140.641 153.857 146.846C157.055 153.004 158.63 160.379 158.583 168.972V239H128.079V174.414C128.127 167.635 126.409 162.36 122.924 158.589C119.487 154.818 114.666 152.932 108.46 152.932C104.307 152.932 100.631 153.816 97.4332 155.582C94.2826 157.348 91.8003 159.926 89.9864 163.315C88.2202 166.657 87.3132 170.69 87.2654 175.416ZM230.694 241.148C219.38 241.148 209.642 238.857 201.48 234.274C193.365 229.644 187.111 223.104 182.719 214.655C178.328 206.158 176.132 196.109 176.132 184.51C176.132 173.196 178.328 163.267 182.719 154.723C187.111 146.178 193.293 139.519 201.265 134.745C209.284 129.972 218.688 127.585 229.477 127.585C236.732 127.585 243.487 128.754 249.74 131.093C256.042 133.385 261.531 136.846 266.209 141.476C270.935 146.106 274.611 151.93 277.236 158.947C279.862 165.917 281.174 174.079 281.174 183.436V191.813H188.305V172.91H252.461C252.461 168.518 251.507 164.628 249.597 161.239C247.688 157.849 245.038 155.2 241.649 153.291C238.308 151.333 234.417 150.355 229.978 150.355C225.347 150.355 221.242 151.429 217.662 153.577C214.13 155.677 211.361 158.518 209.356 162.098C207.351 165.63 206.325 169.568 206.277 173.912V191.885C206.277 197.327 207.279 202.029 209.284 205.991C211.337 209.953 214.225 213.008 217.948 215.156C221.672 217.304 226.087 218.378 231.195 218.378C234.584 218.378 237.687 217.901 240.504 216.946C243.32 215.991 245.731 214.559 247.736 212.65C249.74 210.74 251.268 208.401 252.318 205.633L280.53 207.494C279.098 214.273 276.162 220.192 271.723 225.252C267.331 230.264 261.65 234.179 254.681 236.995C247.759 239.764 239.764 241.148 230.694 241.148ZM329.567 92.3559V239H299.064V92.3559H329.567ZM351.985 280.244V129.017H382.059V147.491H383.419C384.756 144.531 386.689 141.524 389.219 138.469C391.797 135.366 395.138 132.788 399.244 130.735C403.397 128.635 408.552 127.585 414.71 127.585C422.73 127.585 430.129 129.685 436.907 133.886C443.686 138.039 449.104 144.316 453.161 152.718C457.219 161.071 459.247 171.549 459.247 184.152C459.247 196.42 457.266 206.778 453.304 215.228C449.39 223.629 444.044 230.002 437.265 234.346C430.534 238.642 422.992 240.79 414.638 240.79C408.719 240.79 403.683 239.812 399.53 237.854C395.425 235.897 392.059 233.439 389.434 230.479C386.808 227.472 384.804 224.441 383.419 221.386H382.488V280.244H351.985ZM381.844 184.008C381.844 190.548 382.751 196.253 384.565 201.122C386.379 205.991 389.004 209.786 392.441 212.507C395.878 215.18 400.055 216.516 404.972 216.516C409.936 216.516 414.137 215.156 417.574 212.435C421.011 209.666 423.613 205.848 425.379 200.978C427.193 196.062 428.1 190.405 428.1 184.008C428.1 177.66 427.217 172.075 425.451 167.253C423.684 162.432 421.083 158.661 417.646 155.94C414.209 153.219 409.984 151.858 404.972 151.858C400.007 151.858 395.807 153.171 392.37 155.797C388.98 158.422 386.379 162.145 384.565 166.967C382.751 171.788 381.844 177.469 381.844 184.008Z" fill="#008D0F"/>
<path d="M96.8424 421.862C92.1166 421.862 88.0591 420.191 84.6698 416.849C81.3283 413.46 79.6576 409.403 79.6576 404.677C79.6576 399.999 81.3283 395.989 84.6698 392.647C88.0591 389.306 92.1166 387.635 96.8424 387.635C101.425 387.635 105.435 389.306 108.872 392.647C112.309 395.989 114.027 399.999 114.027 404.677C114.027 407.827 113.216 410.715 111.593 413.341C110.017 415.919 107.941 417.995 105.363 419.57C102.786 421.098 99.9453 421.862 96.8424 421.862ZM167.557 356.416V420H137.054V310.017H166.125V329.421H167.414C169.849 323.025 173.93 317.965 179.658 314.242C185.387 310.47 192.332 308.585 200.495 308.585C208.133 308.585 214.792 310.256 220.472 313.597C226.153 316.939 230.569 321.712 233.719 327.918C236.87 334.076 238.445 341.427 238.445 349.972V420H207.942V355.414C207.99 348.683 206.271 343.432 202.786 339.661C199.302 335.842 194.504 333.932 188.394 333.932C184.289 333.932 180.661 334.816 177.51 336.582C174.407 338.348 171.973 340.926 170.207 344.315C168.488 347.657 167.605 351.69 167.557 356.416ZM310.592 422.148C299.279 422.148 289.541 419.857 281.378 415.274C273.263 410.644 267.009 404.104 262.618 395.655C258.226 387.158 256.03 377.109 256.03 365.51C256.03 354.196 258.226 344.267 262.618 335.723C267.009 327.178 273.191 320.519 281.163 315.745C289.183 310.972 298.586 308.585 309.375 308.585C316.631 308.585 323.385 309.754 329.639 312.093C335.94 314.385 341.429 317.846 346.107 322.476C350.833 327.106 354.509 332.93 357.134 339.947C359.76 346.917 361.073 355.079 361.073 364.436V372.813H268.203V353.91H332.359C332.359 349.518 331.405 345.628 329.495 342.239C327.586 338.849 324.937 336.2 321.547 334.291C318.206 332.333 314.315 331.355 309.876 331.355C305.246 331.355 301.14 332.429 297.56 334.577C294.028 336.677 291.259 339.518 289.254 343.098C287.249 346.63 286.223 350.568 286.175 354.912V372.885C286.175 378.327 287.178 383.029 289.183 386.991C291.235 390.953 294.123 394.008 297.847 396.156C301.57 398.304 305.986 399.378 311.093 399.378C314.482 399.378 317.585 398.901 320.402 397.946C323.218 396.991 325.629 395.559 327.634 393.65C329.639 391.74 331.166 389.401 332.216 386.633L360.428 388.494C358.996 395.273 356.06 401.192 351.621 406.252C347.229 411.264 341.549 415.179 334.579 417.995C327.658 420.764 319.662 422.148 310.592 422.148ZM437.462 310.017V332.93H371.229V310.017H437.462ZM386.266 283.667H416.769V386.203C416.769 389.02 417.198 391.215 418.058 392.791C418.917 394.318 420.11 395.392 421.638 396.013C423.213 396.633 425.027 396.944 427.08 396.944C428.512 396.944 429.944 396.824 431.376 396.586C432.808 396.299 433.906 396.084 434.67 395.941L439.467 418.64C437.939 419.117 435.791 419.666 433.023 420.286C430.254 420.955 426.889 421.36 422.927 421.504C415.575 421.79 409.131 420.812 403.594 418.568C398.104 416.324 393.832 412.84 390.777 408.114C387.721 403.388 386.218 397.421 386.266 390.213V283.667Z" fill="black"/>
<path d="M87.2654 175.416L83.7422 175.38L83.742 175.398V175.416H87.2654ZM87.2654 239V242.523H90.7889V239H87.2654ZM56.7623 239H53.2389V242.523H56.7623V239ZM56.7623 92.3559V88.8324H53.2389V92.3559H56.7623ZM86.4062 92.3559H89.9296V88.8324H86.4062V92.3559ZM86.4062 148.421H82.8828V151.945H86.4062V148.421ZM87.6951 148.421V151.945H90.1201L90.9861 149.68L87.6951 148.421ZM99.7245 133.17L101.673 136.105L101.682 136.1L101.691 136.094L99.7245 133.17ZM140.539 132.597L138.752 135.634L138.767 135.643L138.782 135.652L140.539 132.597ZM153.857 146.846L150.715 148.441L150.722 148.456L150.73 148.47L153.857 146.846ZM158.583 168.972L155.059 168.952L155.059 168.962V168.972H158.583ZM158.583 239V242.523H162.106V239H158.583ZM128.079 239H124.556V242.523H128.079V239ZM128.079 174.414L124.556 174.389L124.556 174.401V174.414H128.079ZM122.924 158.589L120.32 160.963L120.328 160.972L120.336 160.98L122.924 158.589ZM97.4332 155.582L95.7298 152.497L95.72 152.503L95.7102 152.508L97.4332 155.582ZM89.9864 163.315L86.8799 161.652L86.8756 161.66L86.8713 161.668L89.9864 163.315ZM83.742 175.416V239H90.7889V175.416H83.742ZM87.2654 235.477H56.7623V242.523H87.2654V235.477ZM60.2858 239V92.3559H53.2389V239H60.2858ZM56.7623 95.8793H86.4062V88.8324H56.7623V95.8793ZM82.8828 92.3559V148.421H89.9296V92.3559H82.8828ZM86.4062 151.945H87.6951V144.898H86.4062V151.945ZM90.9861 149.68C93.2192 143.84 96.776 139.356 101.673 136.105L97.7759 130.234C91.5982 134.335 87.1355 140.019 84.404 147.163L90.9861 149.68ZM101.691 136.094C106.515 132.849 112.731 131.108 120.561 131.108V124.061C111.684 124.061 104.008 126.044 97.7584 130.246L101.691 136.094ZM120.561 131.108C127.672 131.108 133.694 132.659 138.752 135.634L142.325 129.56C136.022 125.852 128.726 124.061 120.561 124.061V131.108ZM138.782 135.652C143.884 138.585 147.857 142.812 150.715 148.441L156.999 145.251C153.555 138.469 148.649 133.196 142.295 129.543L138.782 135.652ZM150.73 148.47C153.609 154.014 155.105 160.798 155.059 168.952L162.106 168.991C162.156 159.961 160.501 151.995 156.984 145.222L150.73 148.47ZM155.059 168.972V239H162.106V168.972H155.059ZM158.583 235.477H128.079V242.523H158.583V235.477ZM131.603 239V174.414H124.556V239H131.603ZM131.603 174.438C131.655 167.059 129.778 160.815 125.512 156.198L120.336 160.98C123.04 163.906 124.6 168.211 124.556 174.389L131.603 174.438ZM125.528 156.216C121.282 151.557 115.425 149.409 108.46 149.409V156.456C113.906 156.456 117.692 158.079 120.32 160.963L125.528 156.216ZM108.46 149.409C103.794 149.409 99.5174 150.406 95.7298 152.497L99.1365 158.666C101.745 157.225 104.82 156.456 108.46 156.456V149.409ZM95.7102 152.508C91.9351 154.625 88.9897 157.71 86.8799 161.652L93.0929 164.978C94.611 162.141 96.6301 160.071 99.1561 158.655L95.7102 152.508ZM86.8713 161.668C84.7849 165.616 83.7942 170.231 83.7422 175.38L90.7887 175.452C90.8322 171.15 91.6554 167.697 93.1014 164.962L86.8713 161.668ZM201.48 234.274L199.733 237.334L199.744 237.341L199.755 237.347L201.48 234.274ZM182.719 214.655L179.589 216.273L179.593 216.28L182.719 214.655ZM182.719 154.723L179.586 153.112L179.586 153.112L182.719 154.723ZM201.265 134.745L199.463 131.718L199.455 131.722L201.265 134.745ZM249.74 131.093L248.506 134.394L248.521 134.399L248.536 134.405L249.74 131.093ZM266.209 141.476L263.731 143.98L263.737 143.986L263.743 143.993L266.209 141.476ZM277.236 158.947L273.936 160.182L273.939 160.189L277.236 158.947ZM281.174 191.813V195.337H284.698V191.813H281.174ZM188.305 191.813H184.781V195.337H188.305V191.813ZM188.305 172.91V169.386H184.781V172.91H188.305ZM252.461 172.91V176.433H255.985V172.91H252.461ZM249.597 161.239L246.527 162.968L246.527 162.968L249.597 161.239ZM241.649 153.291L239.868 156.331L239.894 156.346L239.92 156.36L241.649 153.291ZM217.662 153.577L219.463 156.605L219.475 156.598L217.662 153.577ZM209.356 162.098L212.42 163.837L212.425 163.828L212.43 163.819L209.356 162.098ZM206.277 173.912L202.754 173.874L202.754 173.893V173.912H206.277ZM209.284 205.991L206.141 207.582L206.148 207.597L206.156 207.612L209.284 205.991ZM240.504 216.946L239.372 213.609L239.372 213.609L240.504 216.946ZM247.736 212.65L245.306 210.098L245.306 210.098L247.736 212.65ZM252.318 205.633L252.55 202.117L249.948 201.945L249.024 204.383L252.318 205.633ZM280.53 207.494L283.977 208.223L284.817 204.246L280.762 203.979L280.53 207.494ZM271.723 225.252L269.074 222.928L269.073 222.93L271.723 225.252ZM254.681 236.995L255.99 240.267L256.001 240.262L254.681 236.995ZM230.694 237.625C219.859 237.625 210.741 235.433 203.204 231.202L199.755 237.347C208.544 242.281 218.902 244.672 230.694 244.672V237.625ZM203.226 231.214C195.711 226.926 189.931 220.89 185.846 213.03L179.593 216.28C184.291 225.318 191.018 232.362 199.733 237.334L203.226 231.214ZM185.85 213.037C181.766 205.136 179.655 195.665 179.655 184.51H172.608C172.608 196.554 174.89 207.18 179.589 216.273L185.85 213.037ZM179.655 184.51C179.655 173.657 181.759 164.298 185.853 156.333L179.586 153.112C174.896 162.236 172.608 172.735 172.608 184.51H179.655ZM185.853 156.333C189.955 148.353 195.687 142.192 203.075 137.768L199.455 131.722C190.899 136.846 184.267 144.003 179.586 153.112L185.853 156.333ZM203.067 137.773C210.461 133.372 219.222 131.108 229.477 131.108V124.061C218.154 124.061 208.108 126.572 199.463 131.718L203.067 137.773ZM229.477 131.108C236.348 131.108 242.68 132.214 248.506 134.394L250.975 127.793C244.294 125.294 237.117 124.061 229.477 124.061V131.108ZM248.536 134.405C254.368 136.525 259.421 139.714 263.731 143.98L268.688 138.972C263.641 133.977 257.715 130.244 250.945 127.782L248.536 134.405ZM263.743 143.993C268.055 148.217 271.468 153.584 273.936 160.182L280.536 157.712C277.754 150.276 273.816 143.996 268.675 138.959L263.743 143.993ZM273.939 160.189C276.382 166.675 277.651 174.399 277.651 183.436H284.698C284.698 173.76 283.341 165.159 280.533 157.705L273.939 160.189ZM277.651 183.436V191.813H284.698V183.436H277.651ZM281.174 188.29H188.305V195.337H281.174V188.29ZM191.828 191.813V172.91H184.781V191.813H191.828ZM188.305 176.433H252.461V169.386H188.305V176.433ZM255.985 172.91C255.985 167.992 254.911 163.491 252.667 159.509L246.527 162.968C248.103 165.764 248.938 169.045 248.938 172.91H255.985ZM252.667 159.509C250.442 155.559 247.329 152.446 243.379 150.221L239.92 156.36C242.748 157.954 244.934 160.14 246.527 162.968L252.667 159.509ZM243.43 150.25C239.473 147.933 234.95 146.831 229.978 146.831V153.878C233.884 153.878 237.142 154.734 239.868 156.331L243.43 150.25ZM229.978 146.831C224.78 146.831 220.035 148.044 215.849 150.556L219.475 156.598C222.449 154.814 225.914 153.878 229.978 153.878V146.831ZM215.861 150.548C211.798 152.965 208.59 156.255 206.282 160.376L212.43 163.819C214.132 160.78 216.461 158.39 219.463 156.605L215.861 150.548ZM206.292 160.359C203.972 164.446 202.808 168.976 202.754 173.874L209.8 173.951C209.842 170.161 210.73 166.815 212.42 163.837L206.292 160.359ZM202.754 173.912V191.885H209.8V173.912H202.754ZM202.754 191.885C202.754 197.757 203.836 203.027 206.141 207.582L212.428 204.4C210.723 201.03 209.8 196.897 209.8 191.885H202.754ZM206.156 207.612C208.506 212.148 211.858 215.71 216.188 218.208L219.709 212.104C216.592 210.306 214.168 207.758 212.413 204.37L206.156 207.612ZM216.188 218.208C220.539 220.719 225.586 221.902 231.195 221.902V214.855C226.589 214.855 222.804 213.89 219.709 212.104L216.188 218.208ZM231.195 221.902C234.916 221.902 238.407 221.377 241.635 220.283L239.372 213.609C236.967 214.424 234.253 214.855 231.195 214.855V221.902ZM241.635 220.283C244.899 219.176 247.763 217.49 250.165 215.201L245.306 210.098C243.698 211.629 241.74 212.806 239.372 213.609L241.635 220.283ZM250.165 215.201C252.579 212.903 254.389 210.109 255.613 206.882L249.024 204.383C248.147 206.694 246.902 208.578 245.306 210.098L250.165 215.201ZM252.086 209.149L280.298 211.01L280.762 203.979L252.55 202.117L252.086 209.149ZM277.083 206.766C275.772 212.971 273.103 218.337 269.074 222.928L274.371 227.576C279.221 222.048 282.424 215.575 283.977 208.223L277.083 206.766ZM269.073 222.93C265.088 227.477 259.885 231.092 253.361 233.728L256.001 240.262C263.416 237.266 269.574 233.051 274.373 227.574L269.073 222.93ZM253.372 233.724C246.946 236.294 239.41 237.625 230.694 237.625V244.672C240.117 244.672 248.572 243.233 255.99 240.267L253.372 233.724ZM329.567 92.3559H333.09V88.8324H329.567V92.3559ZM329.567 239V242.523H333.09V239H329.567ZM299.064 239H295.54V242.523H299.064V239ZM299.064 92.3559V88.8324H295.54V92.3559H299.064ZM326.044 92.3559V239H333.09V92.3559H326.044ZM329.567 235.477H299.064V242.523H329.567V235.477ZM302.587 239V92.3559H295.54V239H302.587ZM299.064 95.8793H329.567V88.8324H299.064V95.8793ZM351.985 280.244H348.462V283.767H351.985V280.244ZM351.985 129.017V125.493H348.462V129.017H351.985ZM382.059 129.017H385.582V125.493H382.059V129.017ZM382.059 147.491H378.535V151.014H382.059V147.491ZM383.419 147.491V151.014H385.694L386.63 148.941L383.419 147.491ZM389.219 138.469L386.509 136.217L386.505 136.221L389.219 138.469ZM399.244 130.735L400.819 133.887L400.827 133.883L400.834 133.88L399.244 130.735ZM436.907 133.886L435.051 136.881L435.059 136.886L435.066 136.89L436.907 133.886ZM453.161 152.718L449.988 154.25L449.992 154.257L453.161 152.718ZM453.304 215.228L450.114 213.732L450.111 213.74L453.304 215.228ZM437.265 234.346L439.161 237.316L439.166 237.312L437.265 234.346ZM399.53 237.854L398.014 241.035L398.021 241.038L398.028 241.042L399.53 237.854ZM389.434 230.479L386.78 232.796L386.789 232.807L386.798 232.817L389.434 230.479ZM383.419 221.386L386.629 219.931L385.691 217.862H383.419V221.386ZM382.488 221.386V217.862H378.965V221.386H382.488ZM382.488 280.244V283.767H386.012V280.244H382.488ZM392.441 212.507L390.254 215.269L390.266 215.279L390.278 215.288L392.441 212.507ZM417.574 212.435L419.761 215.198L419.773 215.188L419.785 215.179L417.574 212.435ZM425.379 200.978L422.073 199.759L422.07 199.768L422.067 199.777L425.379 200.978ZM425.451 167.253L428.759 166.041L428.759 166.041L425.451 167.253ZM417.646 155.94L419.833 153.177L419.833 153.177L417.646 155.94ZM392.37 155.797L390.231 152.997L390.221 153.004L390.212 153.011L392.37 155.797ZM384.565 166.967L381.267 165.726L381.267 165.726L384.565 166.967ZM355.509 280.244V129.017H348.462V280.244H355.509ZM351.985 132.54H382.059V125.493H351.985V132.54ZM378.535 129.017V147.491H385.582V129.017H378.535ZM382.059 151.014H383.419V143.967H382.059V151.014ZM386.63 148.941C387.813 146.323 389.561 143.58 391.933 140.716L386.505 136.221C383.817 139.467 381.699 142.739 380.208 146.04L386.63 148.941ZM391.929 140.72C394.155 138.041 397.091 135.751 400.819 133.887L397.668 127.584C393.186 129.825 389.439 132.691 386.509 136.217L391.929 140.72ZM400.834 133.88C404.361 132.096 408.933 131.108 414.71 131.108V124.061C408.171 124.061 402.432 125.174 397.653 127.591L400.834 133.88ZM414.71 131.108C422.078 131.108 428.833 133.028 435.051 136.881L438.763 130.891C431.424 126.343 423.382 124.061 414.71 124.061V131.108ZM435.066 136.89C441.175 140.633 446.173 146.349 449.988 154.25L456.334 151.185C452.035 142.283 446.196 135.445 438.748 130.882L435.066 136.89ZM449.992 154.257C453.749 161.992 455.724 171.902 455.724 184.152H462.771C462.771 171.197 460.689 160.151 456.331 151.178L449.992 154.257ZM455.724 184.152C455.724 196.058 453.799 205.874 450.114 213.732L456.494 216.724C460.734 207.683 462.771 196.781 462.771 184.152H455.724ZM450.111 213.74C446.435 221.629 441.499 227.448 435.364 231.379L439.166 237.312C446.588 232.556 452.345 225.629 456.498 216.716L450.111 213.74ZM435.369 231.376C429.232 235.293 422.353 237.267 414.638 237.267V244.314C423.631 244.314 431.837 241.991 439.161 237.316L435.369 231.376ZM414.638 237.267C409.094 237.267 404.6 236.349 401.032 234.667L398.028 241.042C402.766 243.274 408.345 244.314 414.638 244.314V237.267ZM401.046 234.674C397.304 232.89 394.339 230.699 392.07 228.141L386.798 232.817C389.78 236.179 393.546 238.905 398.014 241.035L401.046 234.674ZM392.088 228.162C389.647 225.366 387.847 222.62 386.629 219.931L380.21 222.84C381.76 226.261 383.97 229.578 386.78 232.796L392.088 228.162ZM383.419 217.862H382.488V224.909H383.419V217.862ZM378.965 221.386V280.244H386.012V221.386H378.965ZM382.488 276.72H351.985V283.767H382.488V276.72ZM378.321 184.008C378.321 190.864 379.27 197.002 381.263 202.352L387.867 199.892C386.232 195.503 385.367 190.232 385.367 184.008H378.321ZM381.263 202.352C383.26 207.711 386.226 212.08 390.254 215.269L394.628 209.744C391.783 207.491 389.498 204.27 387.867 199.892L381.263 202.352ZM390.278 215.288C394.413 218.504 399.378 220.04 404.972 220.04V212.993C400.732 212.993 397.344 211.856 394.604 209.725L390.278 215.288ZM404.972 220.04C410.62 220.04 415.62 218.476 419.761 215.198L415.387 209.673C412.654 211.836 409.253 212.993 404.972 212.993V220.04ZM419.785 215.179C423.804 211.941 426.744 207.548 428.691 202.18L422.067 199.777C420.481 204.147 418.218 207.392 415.364 209.691L419.785 215.179ZM428.685 202.198C430.67 196.815 431.623 190.732 431.623 184.008H424.576C424.576 190.078 423.715 195.308 422.073 199.759L428.685 202.198ZM431.623 184.008C431.623 177.34 430.697 171.33 428.759 166.041L422.142 168.465C423.737 172.819 424.576 177.979 424.576 184.008H431.623ZM428.759 166.041C426.808 160.716 423.861 156.367 419.833 153.177L415.459 158.702C418.304 160.955 420.561 164.148 422.142 168.465L428.759 166.041ZM419.833 153.177C415.686 149.894 410.658 148.335 404.972 148.335V155.382C409.31 155.382 412.732 156.544 415.459 158.702L419.833 153.177ZM404.972 148.335C399.354 148.335 394.371 149.834 390.231 152.997L394.509 158.597C397.243 156.508 400.661 155.382 404.972 155.382V148.335ZM390.212 153.011C386.212 156.11 383.264 160.418 381.267 165.726L387.863 168.208C389.494 163.873 391.749 160.734 394.527 158.582L390.212 153.011ZM381.267 165.726C379.27 171.035 378.321 177.154 378.321 184.008H385.367C385.367 177.783 386.232 172.541 387.863 168.208L381.267 165.726ZM84.6698 416.849L82.1608 419.323L82.1783 419.341L82.1961 419.358L84.6698 416.849ZM84.6698 392.647L82.1961 390.138L82.1872 390.147L82.1784 390.156L84.6698 392.647ZM108.872 392.647L106.416 395.174L106.416 395.174L108.872 392.647ZM111.593 413.341L108.596 411.488L108.591 411.496L108.586 411.504L111.593 413.341ZM105.363 419.57L107.16 422.602L107.18 422.589L107.201 422.577L105.363 419.57ZM96.8424 418.338C93.0498 418.338 89.8788 417.037 87.1435 414.34L82.1961 419.358C86.2394 423.345 91.1834 425.385 96.8424 425.385V418.338ZM87.1789 414.376C84.4822 411.641 83.181 408.469 83.181 404.677H76.1341C76.1341 410.336 78.1745 415.28 82.1608 419.323L87.1789 414.376ZM83.181 404.677C83.181 400.944 84.473 397.827 87.1613 395.139L82.1784 390.156C78.1836 394.151 76.1341 399.054 76.1341 404.677H83.181ZM87.1435 395.156C89.8788 392.46 93.0498 391.159 96.8424 391.159V384.112C91.1834 384.112 86.2394 386.152 82.1961 390.138L87.1435 395.156ZM96.8424 391.159C100.462 391.159 103.603 392.439 106.416 395.174L111.328 390.121C107.267 386.173 102.388 384.112 96.8424 384.112V391.159ZM106.416 395.174C109.189 397.87 110.504 400.977 110.504 404.677H117.551C117.551 399.021 115.428 394.108 111.328 390.121L106.416 395.174ZM110.504 404.677C110.504 407.187 109.867 409.431 108.596 411.488L114.59 415.194C116.564 411.999 117.551 408.468 117.551 404.677H110.504ZM108.586 411.504C107.302 413.604 105.627 415.28 103.526 416.564L107.201 422.577C110.255 420.71 112.733 418.233 114.599 415.178L108.586 411.504ZM103.567 416.539C101.553 417.733 99.3367 418.338 96.8424 418.338V425.385C100.554 425.385 104.018 424.463 107.16 422.602L103.567 416.539ZM167.557 356.416L164.034 356.38L164.034 356.398V356.416H167.557ZM167.557 420V423.523H171.081V420H167.557ZM137.054 420H133.531V423.523H137.054V420ZM137.054 310.017V306.493H133.531V310.017H137.054ZM166.125 310.017H169.649V306.493H166.125V310.017ZM166.125 329.421H162.602V332.945H166.125V329.421ZM167.414 329.421V332.945H169.843L170.707 330.675L167.414 329.421ZM179.658 314.242L181.579 317.196L181.587 317.19L181.596 317.184L179.658 314.242ZM220.472 313.597L222.259 310.56L220.472 313.597ZM233.719 327.918L230.577 329.513L230.582 329.523L233.719 327.918ZM238.445 420V423.523H241.968V420H238.445ZM207.942 420H204.418V423.523H207.942V420ZM207.942 355.414L204.418 355.389L204.418 355.401V355.414H207.942ZM202.786 339.661L200.184 342.036L200.191 342.044L200.199 342.052L202.786 339.661ZM177.51 336.582L175.787 333.508L175.777 333.514L175.767 333.52L177.51 336.582ZM170.207 344.315L167.082 342.687L167.078 342.695L167.073 342.704L170.207 344.315ZM164.034 356.416V420H171.081V356.416H164.034ZM167.557 416.477H137.054V423.523H167.557V416.477ZM140.578 420V310.017H133.531V420H140.578ZM137.054 313.54H166.125V306.493H137.054V313.54ZM162.602 310.017V329.421H169.649V310.017H162.602ZM166.125 332.945H167.414V325.898H166.125V332.945ZM170.707 330.675C172.877 324.975 176.478 320.511 181.579 317.196L177.738 311.287C171.382 315.419 166.821 321.075 164.121 328.168L170.707 330.675ZM181.596 317.184C186.647 313.859 192.888 312.108 200.495 312.108V305.061C191.777 305.061 184.126 307.082 177.721 311.299L181.596 317.184ZM200.495 312.108C207.606 312.108 213.628 313.659 218.686 316.634L222.259 310.56C215.956 306.852 208.66 305.061 200.495 305.061V312.108ZM218.686 316.634C223.753 319.615 227.714 323.872 230.577 329.513L236.861 326.323C233.423 319.552 228.553 314.262 222.259 310.56L218.686 316.634ZM230.582 329.523C233.426 335.08 234.922 341.856 234.922 349.972H241.968C241.968 340.998 240.313 333.071 236.856 326.313L230.582 329.523ZM234.922 349.972V420H241.968V349.972H234.922ZM238.445 416.477H207.942V423.523H238.445V416.477ZM211.465 420V355.414H204.418V420H211.465ZM211.465 355.439C211.517 348.099 209.636 341.882 205.374 337.27L200.199 342.052C202.906 344.982 204.462 349.266 204.418 355.389L211.465 355.439ZM205.389 337.286C201.115 332.602 195.298 330.409 188.394 330.409V337.456C193.71 337.456 197.488 339.082 200.184 342.036L205.389 337.286ZM188.394 330.409C183.769 330.409 179.533 331.409 175.787 333.508L179.233 339.655C181.789 338.222 184.809 337.456 188.394 337.456V330.409ZM175.767 333.52C172.034 335.645 169.138 338.741 167.082 342.687L173.331 345.943C174.808 343.111 176.781 341.051 179.253 339.644L175.767 333.52ZM167.073 342.704C165.048 346.642 164.086 351.244 164.034 356.38L171.081 356.452C171.124 352.136 171.929 348.671 173.34 345.926L167.073 342.704ZM281.378 415.274L279.632 418.334L279.642 418.341L279.653 418.347L281.378 415.274ZM262.618 395.655L259.488 397.273L259.491 397.28L262.618 395.655ZM262.618 335.723L259.484 334.112L259.484 334.112L262.618 335.723ZM281.163 315.745L279.361 312.718L279.353 312.722L281.163 315.745ZM329.639 312.093L328.404 315.394L328.419 315.399L328.434 315.405L329.639 312.093ZM346.107 322.476L343.629 324.98L343.635 324.986L343.641 324.993L346.107 322.476ZM357.134 339.947L353.834 341.182L353.837 341.189L357.134 339.947ZM361.073 372.813V376.337H364.596V372.813H361.073ZM268.203 372.813H264.679V376.337H268.203V372.813ZM268.203 353.91V350.386H264.679V353.91H268.203ZM332.359 353.91V357.433H335.883V353.91H332.359ZM329.495 342.239L326.426 343.968L326.426 343.968L329.495 342.239ZM321.547 334.291L319.767 337.331L319.792 337.346L319.818 337.36L321.547 334.291ZM297.56 334.577L299.361 337.605L299.373 337.598L297.56 334.577ZM289.254 343.098L292.318 344.837L292.323 344.828L292.328 344.819L289.254 343.098ZM286.175 354.912L282.652 354.874L282.652 354.893V354.912H286.175ZM289.183 386.991L286.039 388.582L286.046 388.597L286.054 388.612L289.183 386.991ZM320.402 397.946L319.271 394.609L319.271 394.609L320.402 397.946ZM327.634 393.65L325.204 391.098L325.204 391.098L327.634 393.65ZM332.216 386.633L332.448 383.117L329.847 382.945L328.922 385.383L332.216 386.633ZM360.428 388.494L363.875 389.223L364.716 385.246L360.66 384.979L360.428 388.494ZM351.621 406.252L348.972 403.928L348.971 403.93L351.621 406.252ZM334.579 417.995L335.888 421.267L335.899 421.262L334.579 417.995ZM310.592 418.625C299.757 418.625 290.639 416.433 283.103 412.202L279.653 418.347C288.442 423.281 298.8 425.672 310.592 425.672V418.625ZM283.124 412.214C275.609 407.926 269.83 401.89 265.744 394.03L259.491 397.28C264.189 406.318 270.916 413.362 279.632 418.334L283.124 412.214ZM265.748 394.037C261.664 386.136 259.554 376.665 259.554 365.51H252.507C252.507 377.554 254.788 388.18 259.488 397.273L265.748 394.037ZM259.554 365.51C259.554 354.657 261.658 345.298 265.751 337.333L259.484 334.112C254.794 343.236 252.507 353.735 252.507 365.51H259.554ZM265.751 337.333C269.853 329.353 275.585 323.192 282.973 318.768L279.353 312.722C270.797 317.846 264.166 325.003 259.484 334.112L265.751 337.333ZM282.965 318.773C290.359 314.372 299.12 312.108 309.375 312.108V305.061C298.053 305.061 288.006 307.572 279.361 312.718L282.965 318.773ZM309.375 312.108C316.246 312.108 322.579 313.214 328.404 315.394L330.873 308.793C324.192 306.294 317.015 305.061 309.375 305.061V312.108ZM328.434 315.405C334.267 317.525 339.319 320.714 343.629 324.98L348.586 319.972C343.539 314.977 337.613 311.244 330.843 308.782L328.434 315.405ZM343.641 324.993C347.953 329.217 351.366 334.584 353.834 341.182L360.434 338.712C357.652 331.276 353.714 324.996 348.573 319.959L343.641 324.993ZM353.837 341.189C356.28 347.675 357.549 355.399 357.549 364.436H364.596C364.596 354.76 363.239 346.159 360.432 338.705L353.837 341.189ZM357.549 364.436V372.813H364.596V364.436H357.549ZM361.073 369.29H268.203V376.337H361.073V369.29ZM271.726 372.813V353.91H264.679V372.813H271.726ZM268.203 357.433H332.359V350.386H268.203V357.433ZM335.883 353.91C335.883 348.992 334.809 344.491 332.565 340.509L326.426 343.968C328.001 346.764 328.836 350.045 328.836 353.91H335.883ZM332.565 340.509C330.34 336.559 327.227 333.446 323.277 331.221L319.818 337.36C322.646 338.954 324.832 341.14 326.426 343.968L332.565 340.509ZM323.328 331.25C319.371 328.933 314.848 327.831 309.876 327.831V334.878C313.783 334.878 317.04 335.734 319.767 337.331L323.328 331.25ZM309.876 327.831C304.679 327.831 299.933 329.044 295.747 331.556L299.373 337.598C302.347 335.814 305.813 334.878 309.876 334.878V327.831ZM295.759 331.548C291.696 333.965 288.488 337.255 286.18 341.376L292.328 344.819C294.03 341.78 296.359 339.39 299.361 337.605L295.759 331.548ZM286.19 341.359C283.87 345.446 282.706 349.976 282.652 354.874L289.698 354.951C289.74 351.161 290.628 347.815 292.318 344.837L286.19 341.359ZM282.652 354.912V372.885H289.699V354.912H282.652ZM282.652 372.885C282.652 378.757 283.734 384.027 286.039 388.582L292.326 385.4C290.621 382.03 289.699 377.897 289.699 372.885H282.652ZM286.054 388.612C288.404 393.148 291.756 396.71 296.086 399.208L299.607 393.104C296.49 391.306 294.066 388.758 292.311 385.37L286.054 388.612ZM296.086 399.208C300.437 401.719 305.484 402.902 311.093 402.902V395.855C306.487 395.855 302.702 394.89 299.607 393.104L296.086 399.208ZM311.093 402.902C314.814 402.902 318.305 402.377 321.533 401.283L319.271 394.609C316.865 395.424 314.151 395.855 311.093 395.855V402.902ZM321.533 401.283C324.798 400.176 327.661 398.49 330.064 396.201L325.204 391.098C323.596 392.629 321.639 393.806 319.271 394.609L321.533 401.283ZM330.064 396.201C332.477 393.903 334.287 391.109 335.511 387.882L328.922 385.383C328.045 387.694 326.8 389.578 325.204 391.098L330.064 396.201ZM331.984 390.149L360.196 392.01L360.66 384.979L332.448 383.117L331.984 390.149ZM356.981 387.766C355.67 393.971 353.001 399.337 348.972 403.928L354.269 408.576C359.12 403.048 362.322 396.575 363.875 389.223L356.981 387.766ZM348.971 403.93C344.987 408.477 339.783 412.092 333.259 414.728L335.899 421.262C343.314 418.266 349.472 414.051 354.271 408.574L348.971 403.93ZM333.271 414.724C326.845 417.294 319.308 418.625 310.592 418.625V425.672C320.016 425.672 328.47 424.233 335.888 421.267L333.271 414.724ZM437.462 310.017H440.986V306.493H437.462V310.017ZM437.462 332.93V336.453H440.986V332.93H437.462ZM371.229 332.93H367.705V336.453H371.229V332.93ZM371.229 310.017V306.493H367.705V310.017H371.229ZM386.266 283.667V280.143H382.742V283.667H386.266ZM416.769 283.667H420.292V280.143H416.769V283.667ZM418.058 392.791L414.964 394.478L414.975 394.498L414.987 394.518L418.058 392.791ZM421.638 396.013L420.312 399.277L420.329 399.284L420.346 399.291L421.638 396.013ZM431.376 396.586L431.955 400.061L432.011 400.052L432.067 400.041L431.376 396.586ZM434.67 395.941L438.117 395.213L437.405 391.844L434.02 392.478L434.67 395.941ZM439.467 418.64L440.518 422.003L443.577 421.047L442.914 417.911L439.467 418.64ZM433.023 420.286L432.252 416.848L432.224 416.855L432.196 416.861L433.023 420.286ZM422.927 421.504L422.799 417.983L422.789 417.983L422.927 421.504ZM403.594 418.568L402.261 421.83L402.27 421.834L403.594 418.568ZM390.777 408.114L393.736 406.201L393.736 406.201L390.777 408.114ZM386.266 390.213L389.789 390.236L389.789 390.225V390.213H386.266ZM433.939 310.017V332.93H440.986V310.017H433.939ZM437.462 329.407H371.229V336.453H437.462V329.407ZM374.752 332.93V310.017H367.705V332.93H374.752ZM371.229 313.54H437.462V306.493H371.229V313.54ZM386.266 287.19H416.769V280.143H386.266V287.19ZM413.245 283.667V386.203H420.292V283.667H413.245ZM413.245 386.203C413.245 389.305 413.706 392.171 414.964 394.478L421.151 391.103C420.69 390.259 420.292 388.734 420.292 386.203H413.245ZM414.987 394.518C416.21 396.694 417.997 398.337 420.312 399.277L422.964 392.748C422.224 392.448 421.623 391.943 421.128 391.063L414.987 394.518ZM420.346 399.291C422.41 400.104 424.676 400.467 427.08 400.467V393.42C425.378 393.42 424.016 393.163 422.929 392.735L420.346 399.291ZM427.08 400.467C428.708 400.467 430.334 400.331 431.955 400.061L430.797 393.11C429.553 393.317 428.315 393.42 427.08 393.42V400.467ZM432.067 400.041C433.495 399.755 434.576 399.544 435.319 399.404L434.02 392.478C433.235 392.625 432.121 392.843 430.685 393.131L432.067 400.041ZM431.222 396.67L436.02 419.368L442.914 417.911L438.117 395.213L431.222 396.67ZM438.416 415.276C437.025 415.711 434.986 416.235 432.252 416.848L433.793 423.725C436.596 423.096 438.854 422.523 440.518 422.003L438.416 415.276ZM432.196 416.861C429.726 417.458 426.61 417.845 422.799 417.983L423.054 425.025C427.167 424.876 430.782 424.452 433.849 423.711L432.196 416.861ZM422.789 417.983C415.825 418.254 409.897 417.32 404.917 415.302L402.27 421.834C408.365 424.303 415.326 425.326 423.064 425.024L422.789 417.983ZM404.927 415.306C400.066 413.32 396.378 410.288 393.736 406.201L387.818 410.027C391.286 415.391 396.142 419.329 402.261 421.829L404.927 415.306ZM393.736 406.201C391.145 402.194 389.744 396.949 389.789 390.236L382.742 390.19C382.691 397.893 384.298 404.582 387.818 410.027L393.736 406.201ZM389.789 390.213V283.667H382.742V390.213H389.789Z" fill="white" mask="url(#path-2-outside-1_208_1516)"/>
</svg>
