<svg width="74" height="71" viewBox="0 0 74 71" fill="none" xmlns="http://www.w3.org/2000/svg">
<path d="M7.39292 16.985V28H2.10872V2.59615H7.24407V12.3087H7.46734C7.89736 11.184 8.59199 10.3033 9.55125 9.66655C10.5105 9.02154 11.7137 8.69903 13.1609 8.69903C14.484 8.69903 15.6376 8.98846 16.6217 9.56732C17.614 10.1379 18.3831 10.9607 18.9288 12.0358C19.4829 13.1025 19.7558 14.3802 19.7475 15.8687V28H14.4633V16.8114C14.4716 15.6371 14.1739 14.7233 13.5702 14.0701C12.9748 13.4168 12.1396 13.0901 11.0646 13.0901C10.3451 13.0901 9.70837 13.2431 9.15432 13.5491C8.60853 13.855 8.17852 14.3016 7.86428 14.8887C7.55831 15.4676 7.40119 16.1664 7.39292 16.985ZM32.2397 28.3721C30.2798 28.3721 28.5929 27.9752 27.1788 27.1813C25.773 26.3792 24.6897 25.2463 23.9289 23.7826C23.1681 22.3106 22.7877 20.5699 22.7877 18.5604C22.7877 16.6005 23.1681 14.8805 23.9289 13.4002C24.6897 11.92 25.7606 10.7664 27.1416 9.93945C28.5308 9.1125 30.1599 8.69903 32.0288 8.69903C33.2858 8.69903 34.4559 8.90163 35.5392 9.30683C36.6308 9.70377 37.5818 10.3033 38.3922 11.1054C39.2109 11.9076 39.8476 12.9165 40.3024 14.1321C40.7573 15.3394 40.9847 16.7535 40.9847 18.3743V19.8256H24.8964V16.5509H36.0106C36.0106 15.7901 35.8452 15.1161 35.5144 14.529C35.1836 13.9419 34.7247 13.4829 34.1375 13.1521C33.5587 12.8131 32.8847 12.6436 32.1157 12.6436C31.3135 12.6436 30.6023 12.8296 29.9821 13.2018C29.3702 13.5656 28.8906 14.0577 28.5432 14.6779C28.1959 15.2898 28.0181 15.972 28.0099 16.7246V19.838C28.0099 20.7807 28.1835 21.5953 28.5308 22.2817C28.8864 22.968 29.3867 23.4973 30.0317 23.8694C30.6768 24.2415 31.4417 24.4276 32.3265 24.4276C32.9137 24.4276 33.4512 24.3449 33.9391 24.1795C34.427 24.0141 34.8446 23.766 35.1919 23.4352C35.5392 23.1045 35.8038 22.6993 35.9858 22.2196L40.873 22.5421C40.625 23.7164 40.1164 24.7418 39.3473 25.6184C38.5865 26.4867 37.6025 27.1648 36.3951 27.6527C35.196 28.1323 33.8109 28.3721 32.2397 28.3721ZM49.3679 2.59615V28H44.0837V2.59615H49.3679ZM53.2516 35.1448V8.94711H58.4614V12.1474H58.697C58.9286 11.6347 59.2635 11.1137 59.7018 10.5845C60.1483 10.047 60.7272 9.6004 61.4384 9.24481C62.1578 8.88095 63.0509 8.69903 64.1177 8.69903C65.507 8.69903 66.7887 9.06288 67.963 9.7906C69.1373 10.51 70.0759 11.5975 70.7788 13.0529C71.4817 14.5001 71.8331 16.3152 71.8331 18.4984C71.8331 20.6236 71.4899 22.4181 70.8036 23.8818C70.1255 25.3372 69.1993 26.4412 68.025 27.1937C66.859 27.938 65.5524 28.3101 64.1053 28.3101C63.0799 28.3101 62.2074 28.1406 61.488 27.8015C60.7768 27.4625 60.1938 27.0366 59.739 26.5239C59.2842 26.0029 58.9369 25.4778 58.697 24.9486H58.5358V35.1448H53.2516ZM58.4241 18.4736C58.4241 19.6065 58.5813 20.5947 58.8955 21.4382C59.2097 22.2817 59.6646 22.9391 60.26 23.4104C60.8554 23.8735 61.579 24.1051 62.4307 24.1051C63.2907 24.1051 64.0185 23.8694 64.6139 23.398C65.2093 22.9184 65.6599 22.2568 65.9659 21.4134C66.2802 20.5616 66.4373 19.5817 66.4373 18.4736C66.4373 17.3737 66.2843 16.4062 65.9783 15.571C65.6724 14.7357 65.2217 14.0825 64.6263 13.6111C64.0309 13.1397 63.299 12.9041 62.4307 12.9041C61.5707 12.9041 60.843 13.1315 60.2476 13.5863C59.6604 14.0411 59.2097 14.6861 58.8955 15.5213C58.5813 16.3566 58.4241 17.3406 58.4241 18.4736ZM5.19737 59.3225C4.37869 59.3225 3.67579 59.0331 3.08865 58.4542C2.50979 57.8671 2.22036 57.1642 2.22036 56.3455C2.22036 55.5351 2.50979 54.8404 3.08865 54.2616C3.67579 53.6827 4.37869 53.3933 5.19737 53.3933C5.99124 53.3933 6.68588 53.6827 7.28128 54.2616C7.87668 54.8404 8.17438 55.5351 8.17438 56.3455C8.17438 56.8913 8.0338 57.3916 7.75264 57.8464C7.47975 58.293 7.12003 58.6527 6.67347 58.9256C6.22692 59.1902 5.73489 59.3225 5.19737 59.3225ZM17.4477 47.985V59H12.1635V39.9471H17.1996V43.3087H17.4229C17.8446 42.2005 18.5516 41.324 19.544 40.679C20.5363 40.0257 21.7395 39.699 23.1536 39.699C24.4767 39.699 25.6303 39.9885 26.6144 40.5673C27.5985 41.1462 28.3634 41.9731 28.9092 43.0482C29.4549 44.1149 29.7278 45.3884 29.7278 46.8687V59H24.4436V47.8114C24.4519 46.6454 24.1542 45.7357 23.5505 45.0825C22.9469 44.4209 22.1158 44.0901 21.0573 44.0901C20.3461 44.0901 19.7176 44.2431 19.1718 44.5491C18.6343 44.855 18.2126 45.3016 17.9066 45.8887C17.6089 46.4676 17.4559 47.1664 17.4477 47.985ZM42.2262 59.3721C40.2663 59.3721 38.5794 58.9752 37.1653 58.1813C35.7595 57.3792 34.6762 56.2463 33.9154 54.7826C33.1546 53.3106 32.7742 51.5699 32.7742 49.5604C32.7742 47.6005 33.1546 45.8805 33.9154 44.4002C34.6762 42.92 35.7471 41.7664 37.1281 40.9394C38.5174 40.1125 40.1464 39.699 42.0153 39.699C43.2723 39.699 44.4424 39.9016 45.5257 40.3068C46.6173 40.7038 47.5683 41.3033 48.3787 42.1054C49.1974 42.9076 49.8341 43.9165 50.289 45.1321C50.7438 46.3394 50.9712 47.7535 50.9712 49.3743V50.8256H34.8829V47.5509H45.9971C45.9971 46.7901 45.8317 46.1161 45.5009 45.529C45.1702 44.9419 44.7112 44.4829 44.1241 44.1521C43.5452 43.8131 42.8712 43.6436 42.1022 43.6436C41.3 43.6436 40.5889 43.8296 39.9686 44.2018C39.3567 44.5656 38.8771 45.0577 38.5298 45.6779C38.1824 46.2898 38.0046 46.972 37.9964 47.7246V50.838C37.9964 51.7807 38.17 52.5953 38.5174 53.2817C38.8729 53.968 39.3732 54.4973 40.0183 54.8694C40.6633 55.2415 41.4282 55.4276 42.313 55.4276C42.9002 55.4276 43.4377 55.3449 43.9256 55.1795C44.4135 55.0141 44.8311 54.766 45.1784 54.4352C45.5257 54.1045 45.7904 53.6993 45.9723 53.2196L50.8596 53.5421C50.6115 54.7164 50.1029 55.7418 49.3338 56.6184C48.573 57.4867 47.589 58.1648 46.3816 58.6527C45.1826 59.1323 43.7974 59.3721 42.2262 59.3721ZM64.2045 39.9471V43.9165H52.7306V39.9471H64.2045ZM55.3355 35.3824H60.6197V53.1452C60.6197 53.6331 60.6941 54.0135 60.843 54.2864C60.9918 54.551 61.1986 54.7371 61.4632 54.8446C61.7361 54.9521 62.0503 55.0058 62.4059 55.0058C62.654 55.0058 62.9021 54.9852 63.1502 54.9438C63.3982 54.8942 63.5884 54.857 63.7208 54.8322L64.5518 58.7643C64.2872 58.847 63.9151 58.9421 63.4355 59.0496C62.9558 59.1654 62.3728 59.2357 61.6865 59.2605C60.413 59.3101 59.2966 59.1406 58.3373 58.7519C57.3863 58.3632 56.6462 57.7596 56.117 56.9409C55.5877 56.1222 55.3272 55.0885 55.3355 53.8398V35.3824Z" fill="#E2FFE5" fill-opacity="0.2"/>
<path d="M21.8309 66.3636C21.8309 65.9943 21.9208 65.6581 22.1007 65.3551C22.2807 65.0521 22.5221 64.8106 22.8252 64.6307C23.1282 64.4508 23.4644 64.3608 23.8337 64.3608C24.1557 64.3608 24.454 64.4318 24.7286 64.5739C25.0032 64.7159 25.2293 64.9089 25.4069 65.1527C25.5844 65.3965 25.6909 65.6712 25.7265 65.9766H24.6718C24.6363 65.799 24.538 65.6546 24.377 65.5433C24.2184 65.4297 24.0373 65.3729 23.8337 65.3729C23.6514 65.3729 23.4845 65.4167 23.333 65.5043C23.1838 65.5919 23.0643 65.7114 22.9743 65.8629C22.8844 66.0121 22.8394 66.1778 22.8394 66.3601C22.8394 66.5424 22.8844 66.7093 22.9743 66.8608C23.0643 67.0099 23.1838 67.1295 23.333 67.2195C23.4845 67.3094 23.6514 67.3544 23.8337 67.3544C24.0373 67.3544 24.2137 67.2988 24.3628 67.1875C24.512 67.0739 24.6055 66.9283 24.6434 66.7507H25.698C25.6625 67.0561 25.5584 67.3307 25.3855 67.5746C25.2127 67.8184 24.9914 68.0114 24.7215 68.1534C24.4516 68.2955 24.1557 68.3665 23.8337 68.3665C23.4644 68.3665 23.1282 68.2765 22.8252 68.0966C22.5221 67.9167 22.2807 67.6752 22.1007 67.3722C21.9208 67.0691 21.8309 66.733 21.8309 66.3636ZM23.8053 70.1136C23.2892 70.1136 22.8039 70.0166 22.3493 69.8224C21.8971 69.6283 21.4982 69.3596 21.1526 69.0163C20.8093 68.6707 20.5394 68.2718 20.3429 67.8196C20.1488 67.3674 20.0529 66.8821 20.0553 66.3636C20.0577 65.8452 20.1559 65.3598 20.35 64.9077C20.5465 64.4555 20.8164 64.0578 21.1597 63.7145C21.503 63.3688 21.9007 63.099 22.3529 62.9048C22.8051 62.7107 23.2892 62.6136 23.8053 62.6136C24.3238 62.6136 24.8091 62.7107 25.2613 62.9048C25.7158 63.099 26.1135 63.3688 26.4544 63.7145C26.7977 64.0578 27.0664 64.4555 27.2605 64.9077C27.4547 65.3598 27.5529 65.8452 27.5553 66.3636C27.5577 66.8821 27.4618 67.3674 27.2676 67.8196C27.0735 68.2718 26.8048 68.6707 26.4615 69.0163C26.1183 69.3596 25.7194 69.6283 25.2648 69.8224C24.8103 70.0166 24.3238 70.1136 23.8053 70.1136ZM23.8053 68.9311C24.1628 68.9311 24.4966 68.8648 24.8067 68.7322C25.1192 68.5997 25.3926 68.4162 25.627 68.1818C25.8614 67.9451 26.0449 67.6728 26.1774 67.3651C26.31 67.0549 26.3751 66.7223 26.3728 66.3672C26.3728 66.0097 26.3053 65.6759 26.1703 65.3658C26.0378 65.0533 25.8543 64.7798 25.6199 64.5455C25.3855 64.3111 25.1133 64.1276 24.8032 63.995C24.493 63.8625 24.1604 63.7962 23.8053 63.7962C23.4525 63.7962 23.1211 63.8625 22.811 63.995C22.5032 64.1276 22.231 64.3123 21.9942 64.549C21.7598 64.7834 21.5752 65.0568 21.4402 65.3693C21.3053 65.6795 21.2378 66.0121 21.2378 66.3672C21.2355 66.7199 21.3006 67.0514 21.4331 67.3615C21.5681 67.6693 21.7527 67.9415 21.9871 68.1783C22.2239 68.4126 22.4973 68.5973 22.8074 68.7322C23.1176 68.8648 23.4502 68.9311 23.8053 68.9311ZM28.8713 70V68.892L31.4601 66.495C31.6803 66.282 31.8649 66.0902 32.0141 65.9197C32.1656 65.7493 32.2804 65.5824 32.3585 65.419C32.4366 65.2533 32.4757 65.0746 32.4757 64.8828C32.4757 64.6697 32.4272 64.4863 32.3301 64.3324C32.233 64.1761 32.1005 64.0566 31.9324 63.9737C31.7643 63.8885 31.5737 63.8459 31.3607 63.8459C31.1381 63.8459 30.944 63.8909 30.7783 63.9808C30.6125 64.0708 30.4847 64.1998 30.3947 64.3679C30.3048 64.536 30.2598 64.736 30.2598 64.968H28.8003C28.8003 64.4922 28.908 64.0791 29.1234 63.7287C29.3389 63.3783 29.6407 63.1072 30.029 62.9155C30.4172 62.7237 30.8647 62.6278 31.3713 62.6278C31.8921 62.6278 32.3455 62.7202 32.7314 62.9048C33.1196 63.0871 33.4215 63.3404 33.6369 63.6648C33.8524 63.9891 33.9601 64.3608 33.9601 64.7798C33.9601 65.0545 33.9056 65.3255 33.7967 65.593C33.6902 65.8606 33.4996 66.1577 33.225 66.4844C32.9504 66.8087 32.5633 67.1982 32.0638 67.6527L31.002 68.6932V68.7429H34.056V70H28.8713ZM37.9217 70.1598C37.3109 70.1574 36.7853 70.0071 36.345 69.7088C35.907 69.4105 35.5697 68.9785 35.3329 68.4126C35.0985 67.8468 34.9825 67.1662 34.9849 66.3707C34.9849 65.5777 35.1021 64.9018 35.3365 64.343C35.5732 63.7843 35.9106 63.3594 36.3485 63.0682C36.7889 62.7746 37.3133 62.6278 37.9217 62.6278C38.5301 62.6278 39.0533 62.7746 39.4913 63.0682C39.9316 63.3617 40.2702 63.7879 40.5069 64.3466C40.7437 64.9029 40.8609 65.5777 40.8585 66.3707C40.8585 67.1686 40.7401 67.8504 40.5034 68.4162C40.269 68.982 39.9328 69.4141 39.4948 69.7124C39.0569 70.0107 38.5325 70.1598 37.9217 70.1598ZM37.9217 68.8849C38.3384 68.8849 38.671 68.6754 38.9196 68.2564C39.1681 67.8374 39.2913 67.2088 39.2889 66.3707C39.2889 65.8191 39.2321 65.3598 39.1184 64.9929C39.0072 64.6259 38.8485 64.3501 38.6426 64.1655C38.439 63.9808 38.1987 63.8885 37.9217 63.8885C37.5074 63.8885 37.176 64.0956 36.9274 64.5099C36.6788 64.9242 36.5533 65.5445 36.551 66.3707C36.551 66.9295 36.6066 67.3958 36.7179 67.7699C36.8315 68.1416 36.9913 68.4209 37.1973 68.608C37.4032 68.7926 37.6447 68.8849 37.9217 68.8849ZM41.8549 70V68.892L44.4437 66.495C44.6638 66.282 44.8485 66.0902 44.9977 65.9197C45.1492 65.7493 45.264 65.5824 45.3421 65.419C45.4202 65.2533 45.4593 65.0746 45.4593 64.8828C45.4593 64.6697 45.4108 64.4863 45.3137 64.3324C45.2166 64.1761 45.0841 64.0566 44.916 63.9737C44.7479 63.8885 44.5573 63.8459 44.3442 63.8459C44.1217 63.8459 43.9276 63.8909 43.7619 63.9808C43.5961 64.0708 43.4683 64.1998 43.3783 64.3679C43.2884 64.536 43.2434 64.736 43.2434 64.968H41.7839C41.7839 64.4922 41.8916 64.0791 42.107 63.7287C42.3225 63.3783 42.6243 63.1072 43.0126 62.9155C43.4008 62.7237 43.8483 62.6278 44.3549 62.6278C44.8757 62.6278 45.3291 62.7202 45.715 62.9048C46.1032 63.0871 46.4051 63.3404 46.6205 63.6648C46.836 63.9891 46.9437 64.3608 46.9437 64.7798C46.9437 65.0545 46.8892 65.3255 46.7803 65.593C46.6738 65.8606 46.4832 66.1577 46.2086 66.4844C45.934 66.8087 45.5469 67.1982 45.0474 67.6527L43.9856 68.6932V68.7429H47.0396V70H41.8549ZM47.7874 68.7216V67.5107L50.8236 62.7273H51.8677V64.4034H51.2498L49.3357 67.4325V67.4893H53.6503V68.7216H47.7874ZM51.2782 70V68.3523L51.3066 67.8161V62.7273H52.7483V70H51.2782Z" fill="#E2FFE5" fill-opacity="0.2"/>
</svg>
