<svg width="220" height="244" viewBox="0 0 220 244" fill="none" xmlns="http://www.w3.org/2000/svg">
<path d="M39.2142 88.3575V115H26.433V53.5543H38.8541V77.0465H39.3942C40.4343 74.3263 42.1144 72.1961 44.4346 70.6559C46.7549 69.0958 49.6651 68.3157 53.1654 68.3157C56.3657 68.3157 59.156 69.0158 61.5362 70.4159C63.9364 71.796 65.7966 73.7862 67.1167 76.3864C68.4568 78.9667 69.1169 82.057 69.0969 85.6573V115H56.3157V87.9375C56.3357 85.0972 55.6157 82.887 54.1555 81.3069C52.7154 79.7267 50.6952 78.9367 48.095 78.9367C46.3548 78.9367 44.8147 79.3067 43.4746 80.0468C42.1544 80.7868 41.1143 81.8669 40.3543 83.2871C39.6142 84.6872 39.2342 86.3774 39.2142 88.3575ZM99.3124 115.9C94.5719 115.9 90.4916 114.94 87.0713 113.02C83.6709 111.08 81.0507 108.339 79.2105 104.799C77.3704 101.239 76.4503 97.0283 76.4503 92.1679C76.4503 87.4275 77.3704 83.2671 79.2105 79.6867C81.0507 76.1064 83.6409 73.3162 86.9812 71.316C90.3416 69.3158 94.2819 68.3157 98.8023 68.3157C101.843 68.3157 104.673 68.8057 107.293 69.7858C109.933 70.7459 112.234 72.1961 114.194 74.1362C116.174 76.0764 117.714 78.5166 118.814 81.4569C119.914 84.3772 120.464 87.7975 120.464 91.7178V95.2282H81.5507V87.3074H108.433C108.433 85.4673 108.033 83.8371 107.233 82.417C106.433 80.9969 105.323 79.8868 103.903 79.0867C102.503 78.2666 100.873 77.8566 99.0124 77.8566C97.0722 77.8566 95.352 78.3066 93.8519 79.2067C92.3717 80.0868 91.2116 81.2769 90.3716 82.777C89.5315 84.2572 89.1014 85.9073 89.0814 87.7275V95.2582C89.0814 97.5384 89.5015 99.5086 90.3416 101.169C91.2016 102.829 92.4117 104.109 93.9719 105.009C95.532 105.909 97.3822 106.359 99.5224 106.359C100.943 106.359 102.243 106.159 103.423 105.759C104.603 105.359 105.613 104.759 106.453 103.959C107.293 103.159 107.933 102.179 108.373 101.019L120.194 101.799C119.594 104.639 118.364 107.119 116.504 109.239C114.664 111.34 112.284 112.98 109.363 114.16C106.463 115.32 103.113 115.9 99.3124 115.9ZM140.741 53.5543V115H127.96V53.5543H140.741ZM150.135 132.282V68.9158H162.736V76.6565H163.306C163.866 75.4164 164.676 74.1562 165.736 72.8761C166.816 71.576 168.217 70.4959 169.937 69.6358C171.677 68.7557 173.837 68.3157 176.417 68.3157C179.778 68.3157 182.878 69.1958 185.718 70.9559C188.558 72.6961 190.829 75.3263 192.529 78.8467C194.229 82.347 195.079 86.7374 195.079 92.0179C195.079 97.1583 194.249 101.499 192.589 105.039C190.949 108.559 188.708 111.23 185.868 113.05C183.048 114.85 179.888 115.75 176.387 115.75C173.907 115.75 171.797 115.34 170.057 114.52C168.337 113.7 166.926 112.67 165.826 111.43C164.726 110.17 163.886 108.899 163.306 107.619H162.916V132.282H150.135ZM162.646 91.9579C162.646 94.6981 163.026 97.0883 163.786 99.1285C164.546 101.169 165.646 102.759 167.087 103.899C168.527 105.019 170.277 105.579 172.337 105.579C174.417 105.579 176.177 105.009 177.617 103.869C179.058 102.709 180.148 101.109 180.888 99.0685C181.648 97.0083 182.028 94.6381 182.028 91.9579C182.028 89.2976 181.658 86.9574 180.918 84.9372C180.178 82.917 179.088 81.3369 177.647 80.1968C176.207 79.0567 174.437 78.4866 172.337 78.4866C170.257 78.4866 168.497 79.0367 167.056 80.1368C165.636 81.2369 164.546 82.797 163.786 84.8172C163.026 86.8374 162.646 89.2176 162.646 91.9579Z" fill="white"/>
<path d="M33.9037 191.78C31.9235 191.78 30.2233 191.08 28.8032 189.68C27.4031 188.26 26.703 186.56 26.703 184.579C26.703 182.619 27.4031 180.939 28.8032 179.539C30.2233 178.139 31.9235 177.439 33.9037 177.439C35.8239 177.439 37.504 178.139 38.9441 179.539C40.3843 180.939 41.1043 182.619 41.1043 184.579C41.1043 185.9 40.7643 187.11 40.0842 188.21C39.4242 189.29 38.5541 190.16 37.474 190.82C36.3939 191.46 35.2038 191.78 33.9037 191.78ZM63.5341 164.358V191H50.7529V144.916H62.934V153.047H63.4741C64.4942 150.366 66.2043 148.246 68.6046 146.686C71.0048 145.106 73.915 144.316 77.3354 144.316C80.5357 144.316 83.3259 145.016 85.7061 146.416C88.0863 147.816 89.9365 149.816 91.2566 152.416C92.5768 154.997 93.2368 158.077 93.2368 161.657V191H80.4556V163.938C80.4756 161.117 79.7556 158.917 78.2955 157.337C76.8353 155.737 74.8251 154.937 72.2649 154.937C70.5447 154.937 69.0246 155.307 67.7045 156.047C66.4044 156.787 65.3843 157.867 64.6442 159.287C63.9241 160.687 63.5541 162.377 63.5341 164.358ZM123.467 191.9C118.727 191.9 114.646 190.94 111.226 189.02C107.826 187.08 105.206 184.339 103.365 180.799C101.525 177.239 100.605 173.028 100.605 168.168C100.605 163.427 101.525 159.267 103.365 155.687C105.206 152.106 107.796 149.316 111.136 147.316C114.496 145.316 118.437 144.316 122.957 144.316C125.998 144.316 128.828 144.806 131.448 145.786C134.088 146.746 136.388 148.196 138.349 150.136C140.329 152.076 141.869 154.517 142.969 157.457C144.069 160.377 144.619 163.797 144.619 167.718V171.228H105.706V163.307H132.588C132.588 161.467 132.188 159.837 131.388 158.417C130.588 156.997 129.478 155.887 128.058 155.087C126.658 154.267 125.027 153.857 123.167 153.857C121.227 153.857 119.507 154.307 118.007 155.207C116.527 156.087 115.367 157.277 114.526 158.777C113.686 160.257 113.256 161.907 113.236 163.727V171.258C113.236 173.538 113.656 175.509 114.496 177.169C115.357 178.829 116.567 180.109 118.127 181.009C119.687 181.909 121.537 182.359 123.677 182.359C125.097 182.359 126.398 182.159 127.578 181.759C128.758 181.359 129.768 180.759 130.608 179.959C131.448 179.159 132.088 178.179 132.528 177.019L144.349 177.799C143.749 180.639 142.519 183.119 140.659 185.239C138.819 187.34 136.438 188.98 133.518 190.16C130.618 191.32 127.268 191.9 123.467 191.9ZM176.627 144.916V154.517H148.875V144.916H176.627ZM155.175 133.875H167.957V176.839C167.957 178.019 168.137 178.939 168.497 179.599C168.857 180.239 169.357 180.689 169.997 180.949C170.657 181.209 171.417 181.339 172.277 181.339C172.877 181.339 173.477 181.289 174.077 181.189C174.677 181.069 175.137 180.979 175.457 180.919L177.467 190.43C176.827 190.63 175.927 190.86 174.767 191.12C173.607 191.4 172.197 191.57 170.537 191.63C167.457 191.75 164.756 191.34 162.436 190.4C160.136 189.46 158.346 188 157.066 186.02C155.785 184.039 155.155 181.539 155.175 178.519V133.875Z" fill="#363636"/>
</svg>
