<svg width="758" height="624" viewBox="0 0 758 624" fill="none" xmlns="http://www.w3.org/2000/svg">
<path d="M135.11 195.205V287H91.0734V75.2918H133.87V156.233H135.731C139.314 146.86 145.103 139.521 153.097 134.215C161.091 128.839 171.119 126.151 183.179 126.151C194.205 126.151 203.819 128.563 212.02 133.388C220.29 138.143 226.699 145 231.247 153.959C235.865 162.849 238.139 173.496 238.07 185.901V287H194.033V193.757C194.102 183.971 191.621 176.356 186.59 170.912C181.628 165.468 174.668 162.746 165.709 162.746C159.713 162.746 154.407 164.02 149.789 166.57C145.241 169.12 141.657 172.842 139.039 177.735C136.489 182.559 135.179 188.382 135.11 195.205ZM342.176 290.101C325.843 290.101 311.784 286.793 300 280.177C288.284 273.493 279.256 264.051 272.916 251.853C266.576 239.586 263.406 225.079 263.406 208.333C263.406 192 266.576 177.666 272.916 165.33C279.256 152.994 288.181 143.38 299.69 136.489C311.267 129.597 324.844 126.151 340.419 126.151C350.894 126.151 360.645 127.84 369.673 131.217C378.77 134.525 386.695 139.521 393.449 146.206C400.272 152.891 405.578 161.298 409.369 171.429C413.159 181.49 415.054 193.275 415.054 206.782V218.877H280.979V191.587H373.601C373.601 185.246 372.223 179.63 369.467 174.737C366.71 169.844 362.885 166.019 357.992 163.262C353.168 160.437 347.551 159.024 341.142 159.024C334.458 159.024 328.531 160.575 323.362 163.676C318.262 166.708 314.265 170.809 311.371 175.977C308.476 181.077 306.995 186.763 306.926 193.034V218.98C306.926 226.837 308.373 233.625 311.267 239.345C314.231 245.065 318.4 249.476 323.776 252.577C329.151 255.678 335.526 257.229 342.9 257.229C347.793 257.229 352.272 256.539 356.338 255.161C360.404 253.783 363.884 251.715 366.779 248.959C369.673 246.202 371.879 242.825 373.395 238.828L414.124 241.516C412.056 251.302 407.818 259.847 401.409 267.152C395.069 274.388 386.868 280.04 376.806 284.106C366.813 288.103 355.27 290.101 342.176 290.101ZM484.918 75.2918V287H440.881V75.2918H484.918ZM517.283 346.543V128.219H560.7V154.889H562.664C564.593 150.616 567.384 146.275 571.037 141.864C574.758 137.385 579.582 133.663 585.509 130.7C591.505 127.668 598.948 126.151 607.838 126.151C619.416 126.151 630.097 129.184 639.883 135.248C649.669 141.244 657.491 150.306 663.349 162.435C669.207 174.496 672.136 189.623 672.136 207.816C672.136 225.527 669.276 240.482 663.556 252.68C657.905 264.809 650.186 274.009 640.4 280.281C630.683 286.483 619.795 289.584 607.734 289.584C599.189 289.584 591.918 288.172 585.923 285.346C579.996 282.52 575.137 278.971 571.347 274.699C567.557 270.357 564.662 265.981 562.664 261.57H561.32V346.543H517.283ZM560.39 207.609C560.39 217.051 561.699 225.286 564.318 232.316C566.936 239.345 570.727 244.824 575.689 248.752C580.651 252.611 586.681 254.541 593.779 254.541C600.946 254.541 607.011 252.577 611.973 248.649C616.935 244.651 620.69 239.138 623.24 232.109C625.859 225.011 627.169 216.844 627.169 207.609C627.169 198.444 625.894 190.381 623.344 183.42C620.794 176.46 617.038 171.015 612.076 167.087C607.114 163.159 601.015 161.195 593.779 161.195C586.612 161.195 580.547 163.09 575.585 166.88C570.692 170.671 566.936 176.046 564.318 183.007C561.699 189.967 560.39 198.168 560.39 207.609Z" fill="#008D0F"/>
<path d="M116.813 551.688C109.991 551.688 104.133 549.276 99.2399 544.452C94.4158 539.559 92.0038 533.701 92.0038 526.878C92.0038 520.124 94.4158 514.336 99.2399 509.511C104.133 504.687 109.991 502.275 116.813 502.275C123.429 502.275 129.218 504.687 134.18 509.511C139.142 514.336 141.623 520.124 141.623 526.878C141.623 531.427 140.451 535.596 138.108 539.386C135.834 543.108 132.836 546.106 129.115 548.38C125.393 550.585 121.293 551.688 116.813 551.688ZM218.904 457.205V549H174.867V390.219H216.836V418.233H218.697C222.212 408.998 228.104 401.693 236.374 396.318C244.644 390.874 254.671 388.151 266.455 388.151C277.482 388.151 287.095 390.563 295.296 395.388C303.497 400.212 309.872 407.103 314.42 416.062C318.969 424.952 321.243 435.565 321.243 447.901V549H277.206V455.757C277.275 446.04 274.794 438.46 269.763 433.015C264.732 427.502 257.806 424.746 248.985 424.746C243.058 424.746 237.821 426.02 233.272 428.57C228.793 431.12 225.278 434.842 222.728 439.735C220.247 444.559 218.973 450.382 218.904 457.205ZM425.401 552.101C409.068 552.101 395.009 548.793 383.225 542.177C371.509 535.493 362.481 526.051 356.141 513.853C349.801 501.586 346.63 487.079 346.63 470.333C346.63 454 349.801 439.666 356.141 427.33C362.481 414.994 371.406 405.38 382.914 398.489C394.492 391.597 408.069 388.151 423.643 388.151C434.119 388.151 443.87 389.84 452.898 393.217C461.995 396.525 469.92 401.521 476.674 408.206C483.496 414.891 488.803 423.298 492.593 433.429C496.384 443.49 498.279 455.275 498.279 468.782V480.877H364.204V453.587H456.826C456.826 447.246 455.448 441.63 452.691 436.737C449.935 431.844 446.11 428.019 441.217 425.262C436.393 422.437 430.776 421.024 424.367 421.024C417.682 421.024 411.755 422.575 406.587 425.676C401.487 428.708 397.49 432.809 394.596 437.977C391.701 443.077 390.219 448.763 390.151 455.034V480.98C390.151 488.837 391.598 495.625 394.492 501.345C397.456 507.065 401.625 511.476 407 514.577C412.376 517.678 418.75 519.229 426.124 519.229C431.017 519.229 435.497 518.539 439.563 517.161C443.629 515.783 447.109 513.715 450.004 510.959C452.898 508.202 455.103 504.825 456.619 500.828L497.348 503.516C495.281 513.302 491.043 521.847 484.634 529.152C478.293 536.388 470.092 542.04 460.031 546.106C450.038 550.103 438.495 552.101 425.401 552.101ZM608.561 390.219V423.298H512.941V390.219H608.561ZM534.65 352.178H578.687V500.208C578.687 504.274 579.307 507.444 580.547 509.718C581.788 511.924 583.511 513.474 585.716 514.37C587.99 515.266 590.609 515.714 593.572 515.714C595.64 515.714 597.707 515.542 599.775 515.197C601.842 514.783 603.427 514.473 604.53 514.267L611.456 547.036C609.251 547.725 606.149 548.518 602.152 549.413C598.155 550.378 593.297 550.964 587.577 551.171C576.964 551.584 567.66 550.172 559.666 546.933C551.741 543.694 545.573 538.663 541.162 531.84C536.752 525.017 534.581 516.403 534.65 505.997V352.178Z" fill="black"/>
</svg>
