<svg width="87" height="87" viewBox="0 0 87 87" fill="none" xmlns="http://www.w3.org/2000/svg">
<g clip-path="url(#clip0_82_50)">
<path d="M26.6071 43.2857C31.0874 43.2857 35.3842 41.5059 38.5522 38.3379C41.7202 35.1699 43.5 30.8731 43.5 26.3929C43.5 21.9126 41.7202 17.6158 38.5522 14.4478C35.3842 11.2798 31.0874 9.5 26.6071 9.5C22.1269 9.5 17.8301 11.2798 14.6621 14.4478C11.4941 17.6158 9.71429 21.9126 9.71429 26.3929C9.71429 30.8731 11.4941 35.1699 14.6621 38.3379C17.8301 41.5059 22.1269 43.2857 26.6071 43.2857ZM65 43.2857C68.2584 43.2857 71.3833 41.9913 73.6873 39.6873C75.9913 37.3833 77.2857 34.2584 77.2857 31C77.2857 27.7416 75.9913 24.6167 73.6873 22.3127C71.3833 20.0087 68.2584 18.7143 65 18.7143C61.7416 18.7143 58.6167 20.0087 56.3127 22.3127C54.0087 24.6167 52.7143 27.7416 52.7143 31C52.7143 34.2584 54.0087 37.3833 56.3127 39.6873C58.6167 41.9913 61.7416 43.2857 65 43.2857ZM9.71429 49.4286C7.2705 49.4286 4.92682 50.3994 3.1988 52.1274C1.47079 53.8554 0.5 56.1991 0.5 58.6429V59.1036C0.5 59.1036 0.5 77.0714 26.6071 77.0714C52.7143 77.0714 52.7143 59.1036 52.7143 59.1036V58.6429C52.7143 56.1991 51.7435 53.8554 50.0155 52.1274C48.2875 50.3994 45.9438 49.4286 43.5 49.4286H9.71429ZM65 70.9286C60.528 70.9286 56.9897 70.3204 54.1855 69.3529C55.5124 67.2029 56.2741 65.1297 56.7041 63.4558C57.0175 62.2528 57.216 61.0228 57.2969 59.7824C57.303 59.6595 57.3091 59.5489 57.3091 59.4537L57.3122 59.3247V58.6429C57.3176 55.2426 56.065 51.9606 53.7954 49.4286H79.1071C80.0778 49.4282 81.0391 49.619 81.936 49.9902C82.8329 50.3614 83.6479 50.9057 84.3345 51.5919C85.021 52.2782 85.5656 53.093 85.9372 53.9897C86.3088 54.8865 86.5 55.8477 86.5 56.8184C86.5 56.8184 86.5 70.9286 65 70.9286Z" />
</g>
<defs>
<clipPath id="clip0_82_50">
<rect width="86" height="86" fill="white" transform="translate(0.5 0.5)"/>
</clipPath>
</defs>
</svg>
