<svg width="49" height="49" viewBox="0 0 49 49" fill="none" xmlns="http://www.w3.org/2000/svg">
<g clip-path="url(#clip0_343_219)">
<path d="M8.70872 8.61033H20.7369V20.6385H8.70872V8.61033ZM40.7838 8.61033V20.6385H28.7557V8.61033H40.7838ZM28.7557 30.662H32.7651V26.6526H28.7557V22.6432H32.7651V26.6526H36.7745V22.6432H40.7838V26.6526H36.7745V30.662H40.7838V36.6761H36.7745V40.6855H32.7651V36.6761H26.751V40.6855H22.7416V32.6667H28.7557V30.662ZM32.7651 30.662V36.6761H36.7745V30.662H32.7651ZM8.70872 40.6855V28.6573H20.7369V40.6855H8.70872ZM12.7181 12.6197V16.6291H16.7275V12.6197H12.7181ZM32.7651 12.6197V16.6291H36.7745V12.6197H32.7651ZM12.7181 32.6667V36.6761H16.7275V32.6667H12.7181ZM8.70872 22.6432H12.7181V26.6526H8.70872V22.6432ZM18.7322 22.6432H26.751V30.662H22.7416V26.6526H18.7322V22.6432ZM22.7416 12.6197H26.751V20.6385H22.7416V12.6197ZM4.69933 4.60094V12.6197H0.689941V4.60094C0.689941 3.53759 1.11236 2.51778 1.86426 1.76588C2.61617 1.01397 3.63597 0.591553 4.69933 0.591553L12.7181 0.591553V4.60094H4.69933ZM44.7932 0.591553C45.8566 0.591553 46.8764 1.01397 47.6283 1.76588C48.3802 2.51778 48.8026 3.53759 48.8026 4.60094V12.6197H44.7932V4.60094H36.7745V0.591553H44.7932ZM4.69933 36.6761V44.6948H12.7181V48.7042H4.69933C3.63597 48.7042 2.61617 48.2818 1.86426 47.5299C1.11236 46.778 0.689941 45.7582 0.689941 44.6948V36.6761H4.69933ZM44.7932 44.6948V36.6761H48.8026V44.6948C48.8026 45.7582 48.3802 46.778 47.6283 47.5299C46.8764 48.2818 45.8566 48.7042 44.7932 48.7042H36.7745V44.6948H44.7932Z" />
</g>
<defs>
<clipPath id="clip0_343_219">
<rect width="48.1127" height="48.1127" fill="white" transform="translate(0.689941 0.591553)"/>
</clipPath>
</defs>
</svg>
