<svg width="85" height="85" viewBox="0 0 85 85" fill="none" xmlns="http://www.w3.org/2000/svg">
<path d="M76.3971 63.5C78.6854 63.5 80.6145 64.34 82.1844 66.02C83.7543 67.7 84.5259 69.66 84.4993 71.9L52.4498 84.5L24.5112 76.1V38.3H32.2941L61.3103 49.598C63.3857 50.466 64.4235 52.034 64.4235 54.302C64.4235 55.618 63.9711 56.766 63.0664 57.746C62.1618 58.726 61.0176 59.244 59.634 59.3H48.4586L41.4739 56.486L40.1568 60.434L48.4586 63.5H76.3971ZM60.4322 5.666C63.2527 2.222 66.8448 0.5 71.2085 0.5C74.8273 0.5 77.8872 1.9 80.3884 4.7C82.8895 7.5 84.2199 10.72 84.3796 14.36C84.3796 17.244 83.0492 20.688 80.3884 24.692C77.7276 28.696 75.1067 32.042 72.5257 34.73C69.9447 37.418 65.9135 41.408 60.4322 46.7C54.8977 41.408 50.8267 37.418 48.2191 34.73C45.6115 32.042 42.9906 28.696 40.3564 24.692C37.7222 20.688 36.4317 17.244 36.4849 14.36C36.4849 10.552 37.7754 7.332 40.3564 4.7C42.9374 2.068 46.0505 0.668 49.6958 0.5C53.9532 0.5 57.532 2.222 60.4322 5.666ZM0.5 38.3H16.5288V84.5H0.5V38.3Z" />
</svg>
